<svg width="512" height="512" viewBox="0 0 512 512" xmlns="http://www.w3.org/2000/svg" role="img" aria-label="Barrier Island Digital app icon">
  <defs>
    <linearGradient id="bg" x1="0" y1="0" x2="1" y2="1">
      <stop offset="0" stop-color="#22324f"/>
      <stop offset="0.55" stop-color="#1c2840"/>
      <stop offset="1" stop-color="#16203a"/>
    </linearGradient>
    <radialGradient id="glow" cx="0.5" cy="0.42" r="0.7">
      <stop offset="0" stop-color="#3f7d86" stop-opacity="0.30"/>
      <stop offset="1" stop-color="#3f7d86" stop-opacity="0"/>
    </radialGradient>
  </defs>
  <rect width="512" height="512" fill="url(#bg)"/>
  <rect width="512" height="512" fill="url(#glow)"/>

  <!-- Mark scaled smaller and centered so it stays inside Android's safe zone (center 80%) -->
  <g transform="translate(256,242) scale(1.95)" stroke-linecap="round">
    <circle cx="0" cy="0" r="42" fill="none" stroke="#eaf1f2" stroke-width="6"/>
    <g stroke="#eaf1f2" stroke-width="4.4">
      <line x1="0" y1="-50" x2="0" y2="-58"/>
      <line x1="0" y1="50" x2="0" y2="58"/>
      <line x1="-50" y1="0" x2="-58" y2="0"/>
      <line x1="50" y1="0" x2="58" y2="0"/>
    </g>
    <g fill="#eaf1f2">
      <polygon points="0,-38 4,-4 0,0 -4,-4"/>
      <polygon points="0,-38 0,0 -4,-4" fill="#9fc4ca"/>
      <polygon points="0,38 4,4 0,0 -4,4"/>
      <polygon points="0,38 0,0 4,4" fill="#9fc4ca"/>
      <polygon points="38,0 4,4 0,0 4,-4"/>
      <polygon points="38,0 4,-4 0,0" fill="#9fc4ca"/>
      <polygon points="-38,0 -4,-4 0,0 -4,4"/>
      <polygon points="-38,0 -4,4 0,0" fill="#9fc4ca"/>
      <polygon points="-25,-25 -2,-2 -4,0 -6,-3"/>
      <polygon points="25,-25 2,-2 4,0 6,-3" fill="#7fb0b8"/>
      <polygon points="-25,25 -2,2 -4,0 -6,3" fill="#7fb0b8"/>
      <polygon points="25,25 2,2 4,0 6,3"/>
    </g>
    <circle cx="0" cy="0" r="7" fill="none" stroke="#eaf1f2" stroke-width="5"/>
    <circle cx="0" cy="0" r="3" fill="#3f7d86"/>
  </g>

  <g stroke="#3f7d86" fill="none" stroke-width="9" stroke-linecap="round" transform="translate(256,360) scale(1.45) translate(-256,-360)">
    <path d="M150 360 C182 340, 212 380, 244 360 S304 340, 336 360 S392 376, 396 360" opacity="0.95"/>
    <path d="M176 392 C208 372, 238 412, 270 392 S330 372, 362 392" opacity="0.55"/>
  </g>
</svg>
